<svg width="414" height="66" viewBox="0 0 414 66" fill="none" xmlns="http://www.w3.org/2000/svg">
<path d="M30.32 16.92C36.7467 16.92 39.96 19.5467 39.96 24.8C39.96 25.68 39.8667 26.6267 39.68 27.64L38.28 35.64C37.64 39.3467 36.2533 42.0933 34.12 43.88C31.9867 45.6667 28.9867 46.56 25.12 46.56C21.2533 46.56 18.56 45.6667 17.04 43.88C16 42.6533 15.48 40.96 15.48 38.8C15.48 37.84 15.5867 36.7867 15.8 35.64L17.2 27.64C18.4533 20.4933 22.8267 16.92 30.32 16.92ZM26.2 40.36C27.5333 40.36 28.6 40.0133 29.4 39.32C30.2 38.6267 30.76 37.3467 31.08 35.48L32.44 27.8C32.52 27.2667 32.56 26.7867 32.56 26.36C32.56 24.2 31.4667 23.12 29.28 23.12C26.5333 23.1733 24.8933 24.7333 24.36 27.8L23 35.48C22.8933 36.1467 22.84 36.84 22.84 37.56C22.84 39.4267 23.96 40.36 26.2 40.36ZM54.3225 33.72C54.3225 32.5733 53.7625 32 52.6425 32C51.5492 32 50.6425 32.4133 49.9225 33.24L47.6825 46H40.8825L44.2825 26.76H50.6025L50.1625 29.12C51.7358 27.1733 53.7225 26.2 56.1225 26.2C58.5225 26.2 60.0825 26.7867 60.8025 27.96C61.2558 28.7067 61.4825 29.56 61.4825 30.52C61.4825 31.48 61.4158 32.3733 61.2825 33.2L60.2025 39.36C60.1758 39.52 60.1625 39.6667 60.1625 39.8C60.1625 40.52 60.5625 40.88 61.3625 40.88C61.9758 40.88 62.5225 40.7467 63.0025 40.48L62.8025 45C61.5492 46.04 60.1225 46.56 58.5225 46.56C54.8958 46.56 53.0825 45.04 53.0825 42C53.0825 41.4667 53.1358 40.8933 53.2425 40.28L54.2025 34.96C54.2825 34.48 54.3225 34.0667 54.3225 33.72ZM72.7888 39.84C72.7888 40.5333 73.1354 40.88 73.8288 40.88C74.5488 40.88 75.1488 40.7467 75.6288 40.48L75.4288 45C74.1488 46.04 72.7088 46.56 71.1088 46.56C68.6821 46.56 67.1088 46 66.3888 44.88C65.9354 44.16 65.7088 43.3733 65.7088 42.52C65.7088 41.6667 65.7621 40.92 65.8688 40.28L70.2288 15.64H77.0288L72.8288 39.36C72.8021 39.52 72.7888 39.68 72.7888 39.84ZM86.5622 40.88C87.1755 40.88 87.7222 40.7467 88.2022 40.48L88.0022 45C86.7489 46.04 85.3222 46.56 83.7222 46.56C81.2955 46.56 79.7222 46 79.0022 44.88C78.5222 44.1333 78.2822 43.3467 78.2822 42.52C78.2822 41.6667 78.3355 40.92 78.4422 40.28L80.8422 26.76H87.6422L85.4022 39.36C85.3755 39.52 85.3622 39.6667 85.3622 39.8C85.3622 40.52 85.7622 40.88 86.5622 40.88ZM81.6422 20.24C81.6422 18.5333 82.0155 17.2933 82.7622 16.52C83.5355 15.72 84.7222 15.32 86.3222 15.32C88.5622 15.32 89.6822 16.3067 89.6822 18.28C89.6822 19.96 89.2955 21.1867 88.5222 21.96C87.7755 22.7333 86.5889 23.12 84.9622 23.12C82.7489 23.12 81.6422 22.16 81.6422 20.24ZM103.541 33.72C103.541 32.5733 102.981 32 101.861 32C100.768 32 99.8613 32.4133 99.1413 33.24L96.9013 46H90.1013L93.5013 26.76H99.8213L99.3813 29.12C100.955 27.1733 102.941 26.2 105.341 26.2C107.741 26.2 109.301 26.7867 110.021 27.96C110.475 28.7067 110.701 29.56 110.701 30.52C110.701 31.48 110.635 32.3733 110.501 33.2L109.421 39.36C109.395 39.52 109.381 39.6667 109.381 39.8C109.381 40.52 109.781 40.88 110.581 40.88C111.195 40.88 111.741 40.7467 112.221 40.48L112.021 45C110.768 46.04 109.341 46.56 107.741 46.56C104.115 46.56 102.301 45.04 102.301 42C102.301 41.4667 102.355 40.8933 102.461 40.28L103.421 34.96C103.501 34.48 103.541 34.0667 103.541 33.72ZM122.648 46.56C117.101 46.56 114.328 44.64 114.328 40.8C114.328 40.2667 114.381 39.6933 114.488 39.08L115.328 34.12C115.781 31.56 116.954 29.6 118.848 28.24C120.768 26.8533 123.301 26.16 126.448 26.16C131.808 26.16 134.488 28.1867 134.488 32.24C134.488 32.8267 134.434 33.4667 134.328 34.16L133.848 37H121.648L121.488 37.92C121.434 38.24 121.408 38.5333 121.408 38.8C121.408 40.2667 122.274 41 124.008 41C124.648 41 125.194 40.8 125.648 40.4C126.101 40 126.368 39.5333 126.448 39L133.088 39.08C132.208 44.0667 128.728 46.56 122.648 46.56ZM127.448 34.56C127.554 34.1067 127.608 33.6933 127.608 33.32C127.608 32.92 127.434 32.52 127.088 32.12C126.741 31.72 126.181 31.52 125.408 31.52C124.661 31.52 123.968 31.7733 123.328 32.28C122.714 32.7867 122.288 33.5467 122.048 34.56H127.448ZM166.207 46H146.127L151.207 17.2H171.287L170.167 23.44H157.287L156.367 28.84H167.007L165.887 35.08H155.247L154.447 39.76H167.327L166.207 46ZM191.215 26.76C191.588 27.88 191.775 29.3733 191.775 31.24C191.775 33.08 191.548 34.8533 191.095 36.56C190.641 38.2667 189.948 39.8933 189.015 41.44C188.108 42.96 186.828 44.2 185.175 45.16C183.548 46.0933 181.668 46.56 179.535 46.56C176.201 46.56 173.895 45.88 172.615 44.52C171.761 43.6133 171.335 42.2267 171.335 40.36C171.335 39.48 171.441 38.48 171.655 37.36L173.535 26.76H180.335L178.455 37.4C178.375 37.8 178.335 38.16 178.335 38.48C178.335 40 179.121 40.76 180.695 40.76C183.468 40.76 184.855 37.8533 184.855 32.04C184.855 30.68 184.748 29.1733 184.535 27.52L184.415 26.76H191.215ZM202.101 46.56C196.554 46.56 193.781 44.64 193.781 40.8C193.781 40.2667 193.834 39.6933 193.941 39.08L194.781 34.12C195.234 31.56 196.407 29.6 198.301 28.24C200.221 26.8533 202.754 26.16 205.901 26.16C211.261 26.16 213.941 28.1867 213.941 32.24C213.941 32.8267 213.887 33.4667 213.781 34.16L213.301 37H201.101L200.941 37.92C200.887 38.24 200.861 38.5333 200.861 38.8C200.861 40.2667 201.727 41 203.461 41C204.101 41 204.647 40.8 205.101 40.4C205.554 40 205.821 39.5333 205.901 39L212.541 39.08C211.661 44.0667 208.181 46.56 202.101 46.56ZM206.901 34.56C207.007 34.1067 207.061 33.6933 207.061 33.32C207.061 32.92 206.887 32.52 206.541 32.12C206.194 31.72 205.634 31.52 204.861 31.52C204.114 31.52 203.421 31.7733 202.781 32.28C202.167 32.7867 201.741 33.5467 201.501 34.56H206.901ZM228.971 33.72C228.971 32.5733 228.411 32 227.291 32C226.198 32 225.291 32.4133 224.571 33.24L222.331 46H215.531L218.931 26.76H225.251L224.811 29.12C226.384 27.1733 228.371 26.2 230.771 26.2C233.171 26.2 234.731 26.7867 235.451 27.96C235.904 28.7067 236.131 29.56 236.131 30.52C236.131 31.48 236.064 32.3733 235.931 33.2L234.851 39.36C234.824 39.52 234.811 39.6667 234.811 39.8C234.811 40.52 235.211 40.88 236.011 40.88C236.624 40.88 237.171 40.7467 237.651 40.48L237.451 45C236.198 46.04 234.771 46.56 233.171 46.56C229.544 46.56 227.731 45.04 227.731 42C227.731 41.4667 227.784 40.8933 227.891 40.28L228.851 34.96C228.931 34.48 228.971 34.0667 228.971 33.72ZM248.557 46.56C245.464 46.56 243.237 45.8667 241.877 44.48C240.864 43.4667 240.357 42.1067 240.357 40.4C240.357 39.84 240.411 39.24 240.517 38.6L243.237 23.12L250.557 20.08L249.397 26.76H260.437L259.437 32.4H248.397L247.597 36.92C247.491 37.4267 247.437 37.88 247.437 38.28C247.437 39.96 248.237 40.8 249.837 40.8C250.691 40.8 251.397 40.44 251.957 39.72C252.544 39 252.944 38.04 253.157 36.84H259.797C258.677 43.32 254.931 46.56 248.557 46.56ZM291.16 35.44H280.52L278.68 46H271.44L276.52 17.2H296.6L295.48 23.44H282.6L281.6 29.2H292.24L291.16 35.44ZM304.062 40.88C304.676 40.88 305.222 40.7467 305.702 40.48L305.502 45C304.249 46.04 302.822 46.56 301.222 46.56C298.796 46.56 297.222 46 296.502 44.88C296.022 44.1333 295.782 43.3467 295.782 42.52C295.782 41.6667 295.836 40.92 295.942 40.28L298.342 26.76H305.142L302.902 39.36C302.876 39.52 302.862 39.6667 302.862 39.8C302.862 40.52 303.262 40.88 304.062 40.88ZM299.142 20.24C299.142 18.5333 299.516 17.2933 300.262 16.52C301.036 15.72 302.222 15.32 303.822 15.32C306.062 15.32 307.182 16.3067 307.182 18.28C307.182 19.96 306.796 21.1867 306.022 21.96C305.276 22.7333 304.089 23.12 302.462 23.12C300.249 23.12 299.142 22.16 299.142 20.24ZM321.041 33.72C321.041 32.5733 320.481 32 319.361 32C318.268 32 317.361 32.4133 316.641 33.24L314.401 46H307.601L311.001 26.76H317.321L316.881 29.12C318.455 27.1733 320.441 26.2 322.841 26.2C325.241 26.2 326.801 26.7867 327.521 27.96C327.975 28.7067 328.201 29.56 328.201 30.52C328.201 31.48 328.135 32.3733 328.001 33.2L326.921 39.36C326.895 39.52 326.881 39.6667 326.881 39.8C326.881 40.52 327.281 40.88 328.081 40.88C328.695 40.88 329.241 40.7467 329.721 40.48L329.521 45C328.268 46.04 326.841 46.56 325.241 46.56C321.615 46.56 319.801 45.04 319.801 42C319.801 41.4667 319.855 40.8933 319.961 40.28L320.921 34.96C321.001 34.48 321.041 34.0667 321.041 33.72ZM350.828 39.84C350.828 40.5333 351.174 40.88 351.868 40.88C352.588 40.88 353.188 40.7467 353.668 40.48L353.468 45C352.188 46.04 350.748 46.56 349.148 46.56C346.214 46.56 344.588 45.4933 344.268 43.36C342.934 45.4933 340.974 46.56 338.388 46.56C334.014 46.56 331.828 44.68 331.828 40.92C331.828 40.28 331.894 39.5733 332.028 38.8L332.868 34.12C333.294 31.72 334.268 29.8133 335.788 28.4C337.334 26.96 339.468 26.24 342.188 26.24C343.868 26.24 345.201 26.6 346.188 27.32L348.228 15.64H355.068L350.868 39.36C350.841 39.52 350.828 39.68 350.828 39.84ZM338.988 37.92C338.934 38.16 338.908 38.4933 338.908 38.92C338.908 39.3467 339.108 39.7733 339.508 40.2C339.908 40.6 340.574 40.8 341.508 40.8C342.468 40.8 343.294 40.4267 343.988 39.68L345.188 32.96C344.894 32.2933 344.201 31.96 343.108 31.96C341.054 31.96 339.854 32.9467 339.508 34.92L338.988 37.92ZM364.991 46.56C359.445 46.56 356.671 44.64 356.671 40.8C356.671 40.2667 356.725 39.6933 356.831 39.08L357.671 34.12C358.125 31.56 359.298 29.6 361.191 28.24C363.111 26.8533 365.645 26.16 368.791 26.16C374.151 26.16 376.831 28.1867 376.831 32.24C376.831 32.8267 376.778 33.4667 376.671 34.16L376.191 37H363.991L363.831 37.92C363.778 38.24 363.751 38.5333 363.751 38.8C363.751 40.2667 364.618 41 366.351 41C366.991 41 367.538 40.8 367.991 40.4C368.445 40 368.711 39.5333 368.791 39L375.431 39.08C374.551 44.0667 371.071 46.56 364.991 46.56ZM369.791 34.56C369.898 34.1067 369.951 33.6933 369.951 33.32C369.951 32.92 369.778 32.52 369.431 32.12C369.085 31.72 368.525 31.52 367.751 31.52C367.005 31.52 366.311 31.7733 365.671 32.28C365.058 32.7867 364.631 33.5467 364.391 34.56H369.791ZM398.382 30.84C398.382 31.7467 398.222 32.6267 397.902 33.48C397.608 34.3333 397.315 34.96 397.022 35.36L396.582 35.92H390.542C391.208 35.3067 391.542 34.5467 391.542 33.64C391.542 33.16 391.382 32.7733 391.062 32.48C390.768 32.16 390.355 32 389.822 32C388.915 32 388.128 32.4533 387.462 33.36L385.222 46H378.422L381.822 26.76H388.142L387.662 29.44C389.182 27.28 391.022 26.2 393.182 26.2C394.915 26.2 396.208 26.6133 397.062 27.44C397.942 28.2667 398.382 29.4 398.382 30.84Z" fill="#12CB44"/>
</svg>
